<mxfile host="app.diagrams.net" agent="Mozilla/5.0 (Windows NT 10.0; Win64; x64) AppleWebKit/537.36 (KHTML, like Gecko) Chrome/134.0.0.0 Safari/537.36" version="26.2.8">
  <diagram name="Page-1" id="-nZHXnW55iPPkHIb_xAh">
    <mxGraphModel dx="1099" dy="592" grid="1" gridSize="10" guides="1" tooltips="1" connect="1" arrows="1" fold="1" page="1" pageScale="1" pageWidth="1169" pageHeight="827" background="none" math="0" shadow="0">
      <root>
        <mxCell id="0" />
        <mxCell id="1" parent="0" />
        <mxCell id="SCrmHcsRbsZ-Fb2NN074-1" value="&lt;b&gt;&lt;font style=&quot;font-size: 30px;&quot;&gt;DATA FLOW DIAGRAM&lt;/font&gt;&lt;/b&gt;" style="text;html=1;align=center;verticalAlign=middle;resizable=0;points=[];autosize=1;strokeColor=none;fillColor=none;" vertex="1" parent="1">
          <mxGeometry width="350" height="50" as="geometry" />
        </mxCell>
        <mxCell id="SCrmHcsRbsZ-Fb2NN074-130" value="" style="group" vertex="1" connectable="0" parent="1">
          <mxGeometry x="140" y="110" width="750" height="410" as="geometry" />
        </mxCell>
        <mxCell id="SCrmHcsRbsZ-Fb2NN074-5" value="" style="group;movable=1;resizable=1;rotatable=1;deletable=1;editable=1;locked=0;connectable=1;" vertex="1" connectable="0" parent="SCrmHcsRbsZ-Fb2NN074-130">
          <mxGeometry width="120" height="410" as="geometry" />
        </mxCell>
        <mxCell id="SCrmHcsRbsZ-Fb2NN074-2" value="" style="rounded=0;whiteSpace=wrap;html=1;fillColor=none;dashed=1;movable=1;resizable=1;rotatable=1;deletable=1;editable=1;locked=0;connectable=1;" vertex="1" parent="SCrmHcsRbsZ-Fb2NN074-5">
          <mxGeometry y="21.58" width="120" height="378.42" as="geometry" />
        </mxCell>
        <mxCell id="SCrmHcsRbsZ-Fb2NN074-3" value="&lt;font style=&quot;font-size: 20px;&quot;&gt;&lt;b&gt;Sources&lt;/b&gt;&lt;/font&gt;" style="rounded=1;whiteSpace=wrap;html=1;strokeColor=none;movable=1;resizable=1;rotatable=1;deletable=1;editable=1;locked=0;connectable=1;" vertex="1" parent="SCrmHcsRbsZ-Fb2NN074-5">
          <mxGeometry x="10" width="100" height="32.36842105263158" as="geometry" />
        </mxCell>
        <mxCell id="SCrmHcsRbsZ-Fb2NN074-78" value="" style="group" vertex="1" connectable="0" parent="SCrmHcsRbsZ-Fb2NN074-5">
          <mxGeometry x="25.5" y="110" width="69" height="56" as="geometry" />
        </mxCell>
        <mxCell id="SCrmHcsRbsZ-Fb2NN074-17" value="&lt;font style=&quot;font-size: 14px;&quot;&gt;&lt;b style=&quot;&quot;&gt;CRM&lt;/b&gt;&lt;/font&gt;" style="image;aspect=fixed;html=1;points=[];align=center;fontSize=12;image=img/lib/azure2/general/Folder_Blank.svg;movable=1;resizable=1;rotatable=1;deletable=1;editable=1;locked=0;connectable=1;" vertex="1" parent="SCrmHcsRbsZ-Fb2NN074-78">
          <mxGeometry width="69" height="56.00000000000001" as="geometry" />
        </mxCell>
        <mxCell id="SCrmHcsRbsZ-Fb2NN074-19" value="" style="image;aspect=fixed;html=1;points=[];align=center;fontSize=12;image=img/lib/azure2/general/Files.svg;movable=1;resizable=1;rotatable=1;deletable=1;editable=1;locked=0;connectable=1;" vertex="1" parent="SCrmHcsRbsZ-Fb2NN074-78">
          <mxGeometry x="41.56999999999999" y="26" width="27.43" height="30" as="geometry" />
        </mxCell>
        <mxCell id="SCrmHcsRbsZ-Fb2NN074-79" value="" style="group" vertex="1" connectable="0" parent="SCrmHcsRbsZ-Fb2NN074-5">
          <mxGeometry x="25.5" y="266" width="69" height="56" as="geometry" />
        </mxCell>
        <mxCell id="SCrmHcsRbsZ-Fb2NN074-18" value="&lt;font style=&quot;font-size: 14px;&quot;&gt;&lt;b style=&quot;&quot;&gt;ERP&lt;/b&gt;&lt;/font&gt;" style="image;aspect=fixed;html=1;points=[];align=center;fontSize=12;image=img/lib/azure2/general/Folder_Blank.svg;movable=1;resizable=1;rotatable=1;deletable=1;editable=1;locked=0;connectable=1;" vertex="1" parent="SCrmHcsRbsZ-Fb2NN074-79">
          <mxGeometry width="69" height="56.00000000000001" as="geometry" />
        </mxCell>
        <mxCell id="SCrmHcsRbsZ-Fb2NN074-20" value="" style="image;aspect=fixed;html=1;points=[];align=center;fontSize=12;image=img/lib/azure2/general/Files.svg;movable=1;resizable=1;rotatable=1;deletable=1;editable=1;locked=0;connectable=1;" vertex="1" parent="SCrmHcsRbsZ-Fb2NN074-79">
          <mxGeometry x="41.56999999999999" y="26" width="27.43" height="30" as="geometry" />
        </mxCell>
        <mxCell id="SCrmHcsRbsZ-Fb2NN074-61" style="edgeStyle=orthogonalEdgeStyle;rounded=0;orthogonalLoop=1;jettySize=auto;html=1;entryX=0;entryY=0.5;entryDx=0;entryDy=0;" edge="1" parent="SCrmHcsRbsZ-Fb2NN074-130" source="SCrmHcsRbsZ-Fb2NN074-20" target="SCrmHcsRbsZ-Fb2NN074-53">
          <mxGeometry relative="1" as="geometry" />
        </mxCell>
        <mxCell id="SCrmHcsRbsZ-Fb2NN074-63" style="edgeStyle=orthogonalEdgeStyle;rounded=0;orthogonalLoop=1;jettySize=auto;html=1;entryX=0;entryY=0.5;entryDx=0;entryDy=0;" edge="1" parent="SCrmHcsRbsZ-Fb2NN074-130" source="SCrmHcsRbsZ-Fb2NN074-20" target="SCrmHcsRbsZ-Fb2NN074-54">
          <mxGeometry relative="1" as="geometry" />
        </mxCell>
        <mxCell id="SCrmHcsRbsZ-Fb2NN074-64" style="edgeStyle=orthogonalEdgeStyle;rounded=0;orthogonalLoop=1;jettySize=auto;html=1;entryX=0;entryY=0.5;entryDx=0;entryDy=0;" edge="1" parent="SCrmHcsRbsZ-Fb2NN074-130" source="SCrmHcsRbsZ-Fb2NN074-20" target="SCrmHcsRbsZ-Fb2NN074-52">
          <mxGeometry relative="1" as="geometry" />
        </mxCell>
        <mxCell id="SCrmHcsRbsZ-Fb2NN074-70" style="edgeStyle=orthogonalEdgeStyle;rounded=0;orthogonalLoop=1;jettySize=auto;html=1;entryX=0;entryY=0.5;entryDx=0;entryDy=0;" edge="1" parent="SCrmHcsRbsZ-Fb2NN074-130" source="SCrmHcsRbsZ-Fb2NN074-17" target="SCrmHcsRbsZ-Fb2NN074-9">
          <mxGeometry relative="1" as="geometry" />
        </mxCell>
        <mxCell id="SCrmHcsRbsZ-Fb2NN074-75" style="edgeStyle=orthogonalEdgeStyle;rounded=0;orthogonalLoop=1;jettySize=auto;html=1;entryX=0;entryY=0.5;entryDx=0;entryDy=0;" edge="1" parent="SCrmHcsRbsZ-Fb2NN074-130" source="SCrmHcsRbsZ-Fb2NN074-17" target="SCrmHcsRbsZ-Fb2NN074-46">
          <mxGeometry relative="1" as="geometry" />
        </mxCell>
        <mxCell id="SCrmHcsRbsZ-Fb2NN074-76" style="edgeStyle=orthogonalEdgeStyle;rounded=0;orthogonalLoop=1;jettySize=auto;html=1;entryX=0;entryY=0.5;entryDx=0;entryDy=0;" edge="1" parent="SCrmHcsRbsZ-Fb2NN074-130" source="SCrmHcsRbsZ-Fb2NN074-17" target="SCrmHcsRbsZ-Fb2NN074-45">
          <mxGeometry relative="1" as="geometry" />
        </mxCell>
        <mxCell id="SCrmHcsRbsZ-Fb2NN074-77" value="" style="group" vertex="1" connectable="0" parent="SCrmHcsRbsZ-Fb2NN074-130">
          <mxGeometry x="170" width="150" height="400" as="geometry" />
        </mxCell>
        <mxCell id="SCrmHcsRbsZ-Fb2NN074-6" value="" style="rounded=1;whiteSpace=wrap;html=1;fillStyle=hatch;fillColor=#ffe6cc;strokeColor=#d79b00;" vertex="1" parent="SCrmHcsRbsZ-Fb2NN074-77">
          <mxGeometry y="40" width="150" height="360" as="geometry" />
        </mxCell>
        <mxCell id="SCrmHcsRbsZ-Fb2NN074-7" value="&lt;b&gt;&lt;font style=&quot;font-size: 20px;&quot;&gt;Bronze Layer&lt;/font&gt;&lt;/b&gt;" style="rounded=1;whiteSpace=wrap;html=1;fillColor=#ffe6cc;strokeColor=none;" vertex="1" parent="SCrmHcsRbsZ-Fb2NN074-77">
          <mxGeometry x="2.5" width="145" height="36" as="geometry" />
        </mxCell>
        <mxCell id="SCrmHcsRbsZ-Fb2NN074-49" value="" style="group" vertex="1" connectable="0" parent="SCrmHcsRbsZ-Fb2NN074-77">
          <mxGeometry x="6.25" y="60" width="137.5" height="140" as="geometry" />
        </mxCell>
        <mxCell id="SCrmHcsRbsZ-Fb2NN074-9" value="&lt;font style=&quot;font-size: 16px;&quot;&gt;crm_sales_details&lt;/font&gt;" style="rounded=1;whiteSpace=wrap;html=1;fillColor=#ffe6cc;strokeColor=none;" vertex="1" parent="SCrmHcsRbsZ-Fb2NN074-49">
          <mxGeometry width="137.5" height="40" as="geometry" />
        </mxCell>
        <mxCell id="SCrmHcsRbsZ-Fb2NN074-45" value="&lt;font style=&quot;font-size: 16px;&quot;&gt;crm_prd_info&lt;/font&gt;" style="rounded=1;whiteSpace=wrap;html=1;fillColor=#ffe6cc;strokeColor=none;" vertex="1" parent="SCrmHcsRbsZ-Fb2NN074-49">
          <mxGeometry y="100" width="137.5" height="40" as="geometry" />
        </mxCell>
        <mxCell id="SCrmHcsRbsZ-Fb2NN074-46" value="&lt;font style=&quot;font-size: 16px;&quot;&gt;crm_cust_info&lt;/font&gt;" style="rounded=1;whiteSpace=wrap;html=1;fillColor=#ffe6cc;strokeColor=none;" vertex="1" parent="SCrmHcsRbsZ-Fb2NN074-49">
          <mxGeometry y="50" width="137.5" height="40" as="geometry" />
        </mxCell>
        <mxCell id="SCrmHcsRbsZ-Fb2NN074-51" value="" style="group" vertex="1" connectable="0" parent="SCrmHcsRbsZ-Fb2NN074-77">
          <mxGeometry x="6.25" y="240" width="137.5" height="140" as="geometry" />
        </mxCell>
        <mxCell id="SCrmHcsRbsZ-Fb2NN074-52" value="&lt;span style=&quot;font-size: 16px;&quot;&gt;erp_cust_az12&lt;/span&gt;" style="rounded=1;whiteSpace=wrap;html=1;fillColor=#ffe6cc;strokeColor=none;" vertex="1" parent="SCrmHcsRbsZ-Fb2NN074-51">
          <mxGeometry width="137.5" height="40" as="geometry" />
        </mxCell>
        <mxCell id="SCrmHcsRbsZ-Fb2NN074-53" value="&lt;span style=&quot;font-size: 16px;&quot;&gt;erp_px_cat_g1v2&lt;/span&gt;" style="rounded=1;whiteSpace=wrap;html=1;fillColor=#ffe6cc;strokeColor=none;" vertex="1" parent="SCrmHcsRbsZ-Fb2NN074-51">
          <mxGeometry y="100" width="137.5" height="40" as="geometry" />
        </mxCell>
        <mxCell id="SCrmHcsRbsZ-Fb2NN074-54" value="&lt;span style=&quot;font-size: 16px;&quot;&gt;erp_loc_a101&lt;/span&gt;" style="rounded=1;whiteSpace=wrap;html=1;fillColor=#ffe6cc;strokeColor=none;" vertex="1" parent="SCrmHcsRbsZ-Fb2NN074-51">
          <mxGeometry y="50" width="137.5" height="40" as="geometry" />
        </mxCell>
        <mxCell id="SCrmHcsRbsZ-Fb2NN074-80" value="" style="group" vertex="1" connectable="0" parent="SCrmHcsRbsZ-Fb2NN074-130">
          <mxGeometry x="380" width="150" height="400" as="geometry" />
        </mxCell>
        <mxCell id="SCrmHcsRbsZ-Fb2NN074-81" value="" style="rounded=1;whiteSpace=wrap;html=1;fillStyle=hatch;fillColor=#f5f5f5;strokeColor=#666666;fontColor=#333333;" vertex="1" parent="SCrmHcsRbsZ-Fb2NN074-80">
          <mxGeometry y="40" width="150" height="360" as="geometry" />
        </mxCell>
        <mxCell id="SCrmHcsRbsZ-Fb2NN074-82" value="&lt;b&gt;&lt;font style=&quot;font-size: 20px;&quot;&gt;Silver Layer&lt;/font&gt;&lt;/b&gt;" style="rounded=1;whiteSpace=wrap;html=1;fillColor=#f5f5f5;strokeColor=#666666;fontColor=#333333;" vertex="1" parent="SCrmHcsRbsZ-Fb2NN074-80">
          <mxGeometry x="2.5" width="145" height="36" as="geometry" />
        </mxCell>
        <mxCell id="SCrmHcsRbsZ-Fb2NN074-88" value="&lt;span style=&quot;font-size: 16px;&quot;&gt;erp_cust_az12&lt;/span&gt;" style="rounded=1;whiteSpace=wrap;html=1;fillColor=#f5f5f5;strokeColor=#666666;fontColor=#333333;container=0;" vertex="1" parent="SCrmHcsRbsZ-Fb2NN074-80">
          <mxGeometry x="6.25" y="240" width="137.5" height="40" as="geometry" />
        </mxCell>
        <mxCell id="SCrmHcsRbsZ-Fb2NN074-89" value="&lt;span style=&quot;font-size: 16px;&quot;&gt;erp_px_cat_g1v2&lt;/span&gt;" style="rounded=1;whiteSpace=wrap;html=1;fillColor=#f5f5f5;strokeColor=#666666;fontColor=#333333;container=0;" vertex="1" parent="SCrmHcsRbsZ-Fb2NN074-80">
          <mxGeometry x="6.25" y="340" width="137.5" height="40" as="geometry" />
        </mxCell>
        <mxCell id="SCrmHcsRbsZ-Fb2NN074-90" value="&lt;span style=&quot;font-size: 16px;&quot;&gt;erp_loc_a101&lt;/span&gt;" style="rounded=1;whiteSpace=wrap;html=1;fillColor=#f5f5f5;strokeColor=#666666;fontColor=#333333;container=0;" vertex="1" parent="SCrmHcsRbsZ-Fb2NN074-80">
          <mxGeometry x="6.25" y="290" width="137.5" height="40" as="geometry" />
        </mxCell>
        <mxCell id="SCrmHcsRbsZ-Fb2NN074-118" value="" style="group" vertex="1" connectable="0" parent="SCrmHcsRbsZ-Fb2NN074-80">
          <mxGeometry x="6.25" y="60" width="137.5" height="140" as="geometry" />
        </mxCell>
        <mxCell id="SCrmHcsRbsZ-Fb2NN074-119" value="&lt;font style=&quot;font-size: 16px;&quot;&gt;crm_sales_details&lt;/font&gt;" style="rounded=1;whiteSpace=wrap;html=1;fillColor=#f5f5f5;strokeColor=#666666;fontColor=#333333;" vertex="1" parent="SCrmHcsRbsZ-Fb2NN074-118">
          <mxGeometry width="137.5" height="40" as="geometry" />
        </mxCell>
        <mxCell id="SCrmHcsRbsZ-Fb2NN074-120" value="&lt;font style=&quot;font-size: 16px;&quot;&gt;crm_prd_info&lt;/font&gt;" style="rounded=1;whiteSpace=wrap;html=1;fillColor=#f5f5f5;strokeColor=#666666;fontColor=#333333;" vertex="1" parent="SCrmHcsRbsZ-Fb2NN074-118">
          <mxGeometry y="100" width="137.5" height="40" as="geometry" />
        </mxCell>
        <mxCell id="SCrmHcsRbsZ-Fb2NN074-121" value="&lt;font style=&quot;font-size: 16px;&quot;&gt;crm_cust_info&lt;/font&gt;" style="rounded=1;whiteSpace=wrap;html=1;fillColor=#f5f5f5;strokeColor=#666666;fontColor=#333333;" vertex="1" parent="SCrmHcsRbsZ-Fb2NN074-118">
          <mxGeometry y="50" width="137.5" height="40" as="geometry" />
        </mxCell>
        <mxCell id="SCrmHcsRbsZ-Fb2NN074-91" style="edgeStyle=orthogonalEdgeStyle;rounded=0;orthogonalLoop=1;jettySize=auto;html=1;" edge="1" parent="SCrmHcsRbsZ-Fb2NN074-130" source="SCrmHcsRbsZ-Fb2NN074-9">
          <mxGeometry relative="1" as="geometry">
            <mxPoint x="386.25" y="80" as="targetPoint" />
          </mxGeometry>
        </mxCell>
        <mxCell id="SCrmHcsRbsZ-Fb2NN074-93" style="edgeStyle=orthogonalEdgeStyle;rounded=0;orthogonalLoop=1;jettySize=auto;html=1;entryX=0;entryY=0.5;entryDx=0;entryDy=0;" edge="1" parent="SCrmHcsRbsZ-Fb2NN074-130" source="SCrmHcsRbsZ-Fb2NN074-46">
          <mxGeometry relative="1" as="geometry">
            <mxPoint x="386.25" y="130" as="targetPoint" />
          </mxGeometry>
        </mxCell>
        <mxCell id="SCrmHcsRbsZ-Fb2NN074-94" style="edgeStyle=orthogonalEdgeStyle;rounded=0;orthogonalLoop=1;jettySize=auto;html=1;entryX=0;entryY=0.5;entryDx=0;entryDy=0;" edge="1" parent="SCrmHcsRbsZ-Fb2NN074-130" source="SCrmHcsRbsZ-Fb2NN074-45">
          <mxGeometry relative="1" as="geometry">
            <mxPoint x="386.25" y="180" as="targetPoint" />
          </mxGeometry>
        </mxCell>
        <mxCell id="SCrmHcsRbsZ-Fb2NN074-95" style="edgeStyle=orthogonalEdgeStyle;rounded=0;orthogonalLoop=1;jettySize=auto;html=1;entryX=0;entryY=0.5;entryDx=0;entryDy=0;" edge="1" parent="SCrmHcsRbsZ-Fb2NN074-130" source="SCrmHcsRbsZ-Fb2NN074-52" target="SCrmHcsRbsZ-Fb2NN074-88">
          <mxGeometry relative="1" as="geometry" />
        </mxCell>
        <mxCell id="SCrmHcsRbsZ-Fb2NN074-96" style="edgeStyle=orthogonalEdgeStyle;rounded=0;orthogonalLoop=1;jettySize=auto;html=1;entryX=0;entryY=0.5;entryDx=0;entryDy=0;" edge="1" parent="SCrmHcsRbsZ-Fb2NN074-130" source="SCrmHcsRbsZ-Fb2NN074-54" target="SCrmHcsRbsZ-Fb2NN074-90">
          <mxGeometry relative="1" as="geometry" />
        </mxCell>
        <mxCell id="SCrmHcsRbsZ-Fb2NN074-98" style="edgeStyle=orthogonalEdgeStyle;rounded=0;orthogonalLoop=1;jettySize=auto;html=1;entryX=0;entryY=0.5;entryDx=0;entryDy=0;" edge="1" parent="SCrmHcsRbsZ-Fb2NN074-130" source="SCrmHcsRbsZ-Fb2NN074-53" target="SCrmHcsRbsZ-Fb2NN074-89">
          <mxGeometry relative="1" as="geometry" />
        </mxCell>
        <mxCell id="SCrmHcsRbsZ-Fb2NN074-100" value="" style="rounded=1;whiteSpace=wrap;html=1;fillStyle=hatch;fillColor=#fff2cc;strokeColor=#d6b656;container=0;" vertex="1" parent="SCrmHcsRbsZ-Fb2NN074-130">
          <mxGeometry x="600" y="40" width="150" height="360" as="geometry" />
        </mxCell>
        <mxCell id="SCrmHcsRbsZ-Fb2NN074-101" value="&lt;b&gt;&lt;font style=&quot;font-size: 20px;&quot;&gt;Gold Layer&lt;/font&gt;&lt;/b&gt;" style="rounded=1;whiteSpace=wrap;html=1;fillColor=#fff2cc;strokeColor=#d6b656;container=0;" vertex="1" parent="SCrmHcsRbsZ-Fb2NN074-130">
          <mxGeometry x="602.5" width="145" height="36" as="geometry" />
        </mxCell>
        <mxCell id="SCrmHcsRbsZ-Fb2NN074-112" value="" style="endArrow=classic;html=1;rounded=0;entryX=0;entryY=0.5;entryDx=0;entryDy=0;exitX=1;exitY=0.5;exitDx=0;exitDy=0;" edge="1" parent="SCrmHcsRbsZ-Fb2NN074-130" target="SCrmHcsRbsZ-Fb2NN074-103">
          <mxGeometry width="50" height="50" relative="1" as="geometry">
            <mxPoint x="523.75" y="80" as="sourcePoint" />
            <mxPoint x="590" y="150" as="targetPoint" />
          </mxGeometry>
        </mxCell>
        <mxCell id="SCrmHcsRbsZ-Fb2NN074-103" value="&lt;span style=&quot;font-size: 16px;&quot;&gt;fact_sales&lt;/span&gt;" style="rounded=1;whiteSpace=wrap;html=1;fillColor=#fff2cc;strokeColor=#d6b656;container=0;" vertex="1" parent="SCrmHcsRbsZ-Fb2NN074-130">
          <mxGeometry x="606.25" y="60" width="137.5" height="40" as="geometry" />
        </mxCell>
        <mxCell id="SCrmHcsRbsZ-Fb2NN074-104" value="&lt;span style=&quot;font-size: 16px;&quot;&gt;dim_products&lt;/span&gt;" style="rounded=1;whiteSpace=wrap;html=1;fillColor=#fff2cc;strokeColor=#d6b656;container=0;" vertex="1" parent="SCrmHcsRbsZ-Fb2NN074-130">
          <mxGeometry x="606.25" y="320" width="137.5" height="40" as="geometry" />
        </mxCell>
        <mxCell id="SCrmHcsRbsZ-Fb2NN074-105" value="&lt;span style=&quot;font-size: 16px;&quot;&gt;dim_customers&lt;/span&gt;" style="rounded=1;whiteSpace=wrap;html=1;fillColor=#fff2cc;strokeColor=#d6b656;container=0;" vertex="1" parent="SCrmHcsRbsZ-Fb2NN074-130">
          <mxGeometry x="606.25" y="180" width="137.5" height="40" as="geometry" />
        </mxCell>
        <mxCell id="SCrmHcsRbsZ-Fb2NN074-123" value="" style="endArrow=classic;html=1;rounded=0;entryX=0;entryY=0.5;entryDx=0;entryDy=0;exitX=1;exitY=0.5;exitDx=0;exitDy=0;jumpStyle=gap;" edge="1" parent="SCrmHcsRbsZ-Fb2NN074-130" source="SCrmHcsRbsZ-Fb2NN074-121" target="SCrmHcsRbsZ-Fb2NN074-105">
          <mxGeometry width="50" height="50" relative="1" as="geometry">
            <mxPoint x="540" y="190" as="sourcePoint" />
            <mxPoint x="590" y="140" as="targetPoint" />
          </mxGeometry>
        </mxCell>
        <mxCell id="SCrmHcsRbsZ-Fb2NN074-124" value="" style="endArrow=classic;html=1;rounded=0;entryX=0;entryY=0.5;entryDx=0;entryDy=0;exitX=1;exitY=0.5;exitDx=0;exitDy=0;jumpStyle=gap;" edge="1" parent="SCrmHcsRbsZ-Fb2NN074-130" source="SCrmHcsRbsZ-Fb2NN074-88" target="SCrmHcsRbsZ-Fb2NN074-105">
          <mxGeometry width="50" height="50" relative="1" as="geometry">
            <mxPoint x="534" y="140" as="sourcePoint" />
            <mxPoint x="616" y="210" as="targetPoint" />
          </mxGeometry>
        </mxCell>
        <mxCell id="SCrmHcsRbsZ-Fb2NN074-125" value="" style="endArrow=classic;html=1;rounded=0;entryX=0;entryY=0.5;entryDx=0;entryDy=0;exitX=1;exitY=0.5;exitDx=0;exitDy=0;jumpStyle=gap;" edge="1" parent="SCrmHcsRbsZ-Fb2NN074-130" source="SCrmHcsRbsZ-Fb2NN074-90" target="SCrmHcsRbsZ-Fb2NN074-105">
          <mxGeometry width="50" height="50" relative="1" as="geometry">
            <mxPoint x="544" y="150" as="sourcePoint" />
            <mxPoint x="626" y="220" as="targetPoint" />
          </mxGeometry>
        </mxCell>
        <mxCell id="SCrmHcsRbsZ-Fb2NN074-126" value="" style="endArrow=classic;html=1;rounded=0;entryX=0;entryY=0.5;entryDx=0;entryDy=0;exitX=1;exitY=0.5;exitDx=0;exitDy=0;jumpStyle=gap;" edge="1" parent="SCrmHcsRbsZ-Fb2NN074-130" source="SCrmHcsRbsZ-Fb2NN074-120" target="SCrmHcsRbsZ-Fb2NN074-104">
          <mxGeometry width="50" height="50" relative="1" as="geometry">
            <mxPoint x="554" y="160" as="sourcePoint" />
            <mxPoint x="636" y="230" as="targetPoint" />
          </mxGeometry>
        </mxCell>
        <mxCell id="SCrmHcsRbsZ-Fb2NN074-127" value="" style="endArrow=classic;html=1;rounded=0;entryX=0.04;entryY=0.832;entryDx=0;entryDy=0;exitX=1;exitY=0.5;exitDx=0;exitDy=0;entryPerimeter=0;jumpStyle=gap;" edge="1" parent="SCrmHcsRbsZ-Fb2NN074-130" source="SCrmHcsRbsZ-Fb2NN074-89" target="SCrmHcsRbsZ-Fb2NN074-100">
          <mxGeometry width="50" height="50" relative="1" as="geometry">
            <mxPoint x="564" y="170" as="sourcePoint" />
            <mxPoint x="646" y="240" as="targetPoint" />
          </mxGeometry>
        </mxCell>
      </root>
    </mxGraphModel>
  </diagram>
</mxfile>
